<svg xmlns="http://www.w3.org/2000/svg" enable-background="new 0 0 66 66" viewBox="0 0 66 66" id="falcon">
  <polygon points="64.485 16.463 49.385 18.063 36.595 34.553 37.915 40.083 49.795 29.663 59.505 27.253 60.905 24.233 58.155 23.853 61.215 23.553 62.435 20.903 59.135 20.453 62.815 20.083"></polygon>
  <path d="M6.495 27.2534l9.7 2.41 11.2002 9.81c.6199-2.61.7998-3.37 1.25-5.24l.1199-.5-12.1499-15.67-15.1001-1.6 1.6699 3.62 3.6802.37-3.3.45 1.22 2.65 3.05.3-2.74.38L6.495 27.2534zM32.5643 49.5366l.0601-.04 5.55-4.04c-.03-.12-.04-.16-.04-.16-.2566-1.0868-.4026-1.6887-2.95-12.33-.1602-.52-.53-.99-1.0901-1.33-.3398-1.02.5-1.87 2.1799-1.19-.0198-.06-.0398-.1299-.0698-.19-.3501-1.04-1.1301-1.61-2.3101-1.73h-3.8999c.8499.47 1.24 1.62 1.3198 2.98-.6499.29-1.1399.8101-1.3398 1.46-1.0471 4.4024-.8088 3.4147-2.99 12.49l5.5698 4.08H32.5643zM32.1344 29.7166c-.1499 0-.27-.12-.27-.27 0-.15.1201-.27.27-.27s.27.12.27.27C32.4044 29.5966 32.2843 29.7166 32.1344 29.7166z"></path>
</svg>
